<?xml version="1.0" encoding="UTF-8"?>
<svg id="Layer_2" data-name="Layer 2" xmlns="http://www.w3.org/2000/svg" viewBox="0 0 157.24 127.09">
  <defs>
    <style>
      .cls-1 {
        fill: #ef515c;
      }

      .cls-2 {
        fill: #00979e;
      }
    </style>
  </defs>
  <g id="Layer_1-2" data-name="Layer 1">
    <g>
      <path class="cls-2" d="M108.43,18.66c12.44,12.44,18.66,27.4,18.66,44.89s-6.22,32.45-18.66,44.89c-12.44,12.44-27.44,18.66-45,18.66s-32.53-6.22-44.89-18.66C6.18,96,0,81.04,0,63.55S6.18,31.09,18.54,18.66C30.9,6.22,45.87,0,63.43,0s32.56,6.22,45,18.66ZM63.55,95.43c8.74,0,16.2-3.13,22.39-9.39,6.18-6.25,9.27-13.75,9.27-22.5s-3.13-16.2-9.38-22.39c-6.26-6.18-13.68-9.27-22.27-9.27s-16.25,3.09-22.5,9.27c-6.26,6.18-9.38,13.65-9.38,22.39s3.13,16.25,9.38,22.5c6.25,6.26,13.76,9.39,22.5,9.39Z"/>
      <path class="cls-1" d="M124.16,39.08l33.08-15.26v79.22c-10.68-5.07-21.36-10.14-32.04-15.21,1.99-4.98,4.79-13.85,4.43-25.17-.34-10.59-3.31-18.8-5.47-23.58Z"/>
    </g>
  </g>
</svg>