<?xml version="1.0" encoding="UTF-8"?>
<svg id="Layer_2" data-name="Layer 2" xmlns="http://www.w3.org/2000/svg" viewBox="0 0 583.29 237.47">
  <defs>
    <style>
      .cls-1 {
        fill: #ef515c;
      }

      .cls-2 {
        fill: #231f20;
      }

      .cls-3 {
        fill: #00979e;
      }
    </style>
  </defs>
  <g id="Layer_1-2" data-name="Layer 1">
    <g>
      <g>
        <path class="cls-2" d="M180.62,229.42l-2.04-1.24c-1.27-.78-2.18-1.55-2.72-2.3-.54-.75-.81-1.62-.81-2.6,0-1.47.51-2.67,1.53-3.59,1.02-.92,2.35-1.38,3.98-1.38s2.99.44,4.29,1.31v3.04c-1.35-1.3-2.8-1.94-4.35-1.94-.88,0-1.59.2-2.16.61s-.84.92-.84,1.55c0,.56.21,1.09.62,1.57.41.49,1.08,1,2,1.54l2.04,1.21c2.28,1.36,3.42,3.1,3.42,5.2,0,1.5-.5,2.72-1.51,3.65s-2.31,1.41-3.92,1.41c-1.85,0-3.53-.57-5.04-1.7v-3.4c1.44,1.83,3.12,2.75,5.02,2.75.84,0,1.54-.23,2.09-.7.56-.47.84-1.05.84-1.75,0-1.14-.82-2.22-2.46-3.24Z"/>
        <path class="cls-2" d="M214.36,218.53h15.62v2.38h-6.52v16.34h-2.69v-16.34h-6.41v-2.38Z"/>
        <path class="cls-2" d="M272.93,218.56h2.69v10.61c0,1.44-.1,2.52-.31,3.25-.21.73-.47,1.34-.78,1.83-.31.49-.68.92-1.13,1.31-1.48,1.28-3.42,1.92-5.81,1.92s-4.39-.63-5.86-1.9c-.45-.39-.82-.83-1.13-1.32-.31-.49-.56-1.08-.76-1.79-.2-.71-.3-1.81-.3-3.32v-10.59h2.69v10.61c0,1.76.2,2.98.6,3.67.4.69,1.01,1.24,1.83,1.65s1.79.62,2.9.62c1.59,0,2.88-.41,3.88-1.24.52-.45.9-.97,1.14-1.58.23-.61.35-1.65.35-3.12v-10.61Z"/>
        <path class="cls-2" d="M306.76,237.23v-18.67h6.3c2.54,0,4.56.38,6.04,1.14,1.48.76,2.66,1.88,3.53,3.37.87,1.48,1.31,3.1,1.31,4.85,0,1.25-.24,2.44-.72,3.59-.48,1.14-1.17,2.15-2.06,3.01-.91.89-1.97,1.57-3.17,2.02-.71.28-1.35.46-1.94.56-.59.09-1.71.14-3.37.14h-5.92ZM312.78,220.94h-3.35v13.91h3.43c1.34,0,2.38-.09,3.12-.27.74-.18,1.36-.41,1.85-.7.49-.28.95-.63,1.36-1.04,1.32-1.34,1.98-3.03,1.98-5.07s-.68-3.65-2.03-4.91c-.5-.47-1.07-.86-1.72-1.16s-1.26-.5-1.84-.6c-.58-.1-1.51-.15-2.8-.15Z"/>
        <path class="cls-2" d="M354.73,218.56h2.68v18.7h-2.68v-18.7Z"/>
        <path class="cls-2" d="M398.13,218.29c2.89,0,5.29.91,7.22,2.74,1.92,1.83,2.88,4.12,2.88,6.88s-.97,5.04-2.91,6.84c-1.94,1.81-4.38,2.71-7.34,2.71s-5.16-.9-7.04-2.71c-1.88-1.81-2.82-4.07-2.82-6.79s.95-5.1,2.84-6.93c1.89-1.83,4.28-2.74,7.17-2.74ZM398.24,220.84c-2.14,0-3.9.67-5.28,2.01-1.38,1.34-2.07,3.05-2.07,5.13s.69,3.69,2.07,5.03c1.38,1.34,3.11,2.01,5.19,2.01s3.83-.68,5.22-2.05,2.09-3.06,2.09-5.1-.7-3.65-2.09-5c-1.4-1.35-3.11-2.03-5.14-2.03Z"/>
      </g>
      <path class="cls-3" d="M18.54,66.73c12.36-12.44,27.32-18.66,44.89-18.66s32.53,6.22,44.89,18.66c12.36,12.44,18.54,27.4,18.54,44.89v63.55h-31.66v-63.55c0-8.74-3.09-16.2-9.27-22.39-6.18-6.18-13.64-9.27-22.39-9.27s-16.25,3.09-22.5,9.27c-6.26,6.18-9.38,13.65-9.38,22.39s3.13,16.25,9.38,22.5c6.25,6.26,13.76,9.39,22.5,9.39,5.57,0,10.85-1.43,15.83-4.3v33.92c-5.13,1.36-10.4,2.04-15.83,2.04-17.64,0-32.64-6.22-45-18.66C6.18,144.07,0,129.11,0,111.62s6.18-32.45,18.54-44.89Z"/>
      <rect class="cls-3" x="268.66" y="48.07" width="31.89" height="127.09"/>
      <path class="cls-3" d="M351.42,48.07c17.64,0,32.64,6.22,45,18.66,12.36,12.44,18.54,27.4,18.54,44.89v63.55h-31.66v-63.55c0-8.74-3.09-16.2-9.27-22.39-6.18-6.18-13.72-9.27-22.61-9.27v95.21h-31.66V48.07h31.66Z"/>
      <path class="cls-3" d="M534.48,66.73c12.44,12.44,18.66,27.4,18.66,44.89s-6.22,32.45-18.66,44.89-27.44,18.66-45,18.66-32.53-6.22-44.89-18.66c-12.36-12.44-18.54-27.4-18.54-44.89s6.18-32.45,18.54-44.89c12.36-12.44,27.32-18.66,44.89-18.66s32.56,6.22,45,18.66ZM489.6,143.5c8.74,0,16.2-3.13,22.39-9.39,6.18-6.25,9.27-13.75,9.27-22.5s-3.13-16.2-9.38-22.39c-6.26-6.18-13.68-9.27-22.27-9.27s-16.25,3.09-22.5,9.27c-6.26,6.18-9.38,13.65-9.38,22.39s3.13,16.25,9.38,22.5c6.25,6.26,13.76,9.39,22.5,9.39Z"/>
      <path class="cls-1" d="M550.21,87.15l33.08-15.26v79.22c-10.68-5.07-21.36-10.14-32.04-15.21,1.99-4.98,4.79-13.85,4.43-25.17-.34-10.59-3.31-18.8-5.47-23.58Z"/>
      <circle class="cls-1" cx="284.6" cy="17.53" r="17.53"/>
      <circle class="cls-3" cx="63.43" cy="111.5" r="17.53"/>
      <path class="cls-3" d="M235.09,135.19c12.58,10.01,19.76,24.51,19.76,40.06v1.46h-26.42v-1.46c0-15.21-13.25-27.59-29.54-27.59s-29.55,12.38-29.55,27.59v1.46h-26.42V23.49h26.42v107.14c8.86-5.19,19.02-7.92,29.55-7.92,16.29,0,29.54-12.37,29.54-27.59v-1.46h26.42v1.46c0,15.55-7.18,30.05-19.76,40.07Z"/>
    </g>
  </g>
</svg>